<svg xmlns="http://www.w3.org/2000/svg" version="1.1" xmlns:xlink="http://www.w3.org/1999/xlink" xmlns:svgjs="http://svgjs.dev/svgjs" width="1500" height="935" viewBox="0 0 1500 935"><g transform="matrix(1,0,0,1,-0.9090909090909918,0.3785425101214628)"><svg viewBox="0 0 396 247" data-background-color="#000000" preserveAspectRatio="xMidYMid meet" height="935" width="1500" xmlns="http://www.w3.org/2000/svg" xmlns:xlink="http://www.w3.org/1999/xlink"><g id="tight-bounds" transform="matrix(1,0,0,1,0.2400000000000091,-0.09999999999999432)"><svg viewBox="0 0 395.52 247.2" height="247.2" width="395.52"><g><svg></svg></g><g><svg viewBox="0 0 395.52 247.2" height="247.2" width="395.52"><g transform="matrix(1,0,0,1,105.6517880069642,47.215199999999996)"><svg viewBox="0 0 184.2164239860716 152.7696" height="152.7696" width="184.2164239860716"><g><svg viewBox="0 0 239.38857953343177 198.52354501602784" height="152.7696" width="184.2164239860716"><g transform="matrix(1,0,0,1,113.5874506070625,0)"><svg viewBox="0 0 125.80112892636929 198.52354501602784" height="198.52354501602784" width="125.80112892636929"><g id="textblocktransform"><svg viewBox="0 0 125.80112892636929 198.52354501602784" height="198.52354501602784" width="125.80112892636929" id="textblock"><g><svg viewBox="0 0 125.80112892636929 151.825483872" height="151.825483872" width="125.80112892636929"><g transform="matrix(1,0,0,1,0,0)"><svg width="125.80112892636929" viewBox="4.39 -36.89 30.57 36.89" height="151.825483872" data-palette-color="#89939e"><path d="M4.39 0L4.39-36.89 8.4-36.89 8.4 0 4.39 0ZM8.79-13.33L19.43-24.61 23.85-24.61 13.35-13.75 24.49 0 19.68 0 8.79-13.33ZM30.22-30.08L30.22-34.69 34.96-34.69 34.96-30.08 30.22-30.08ZM30.59 0L30.59-24.12 34.59-24.12 34.59 0 30.59 0Z" opacity="1" transform="matrix(1,0,0,1,0,0)" fill="#89939e" class="wordmark-text-0" data-fill-palette-color="primary" id="text-0"></path></svg></g></svg></g><g transform="matrix(1,0,0,1,0,187.66783680256628)"><svg viewBox="0 0 125.80112892636929 10.855708213461554" height="10.855708213461554" width="125.80112892636929"><g transform="matrix(1,0,0,1,0,0)"><svg width="125.80112892636929" viewBox="0.1 -38 563.15 48.6" height="10.855708213461554" data-palette-color="#dedede"><path d="M6.15 10.6L6.15 10.6Q3.6 10.6 2.45 9.53 1.3 8.45 1.3 6.7L1.3 6.7Q1.3 5.4 2 4.6 2.7 3.8 4 3.8L4 3.8Q5.15 3.8 5.78 4.48 6.4 5.15 6.4 6.3L6.4 6.3Q6.4 7.15 5.98 7.68 5.55 8.2 5.05 8.35L5.05 8.35 5.05 8.5Q5.6 8.7 6.35 8.7L6.35 8.7Q7.65 8.7 8.9 7.58 10.15 6.45 11.15 3.9L11.15 3.9 12.2 1.05 2.7-23.5 0.1-23.5 0.1-25.8 10.8-25.8 10.8-23.5 7.2-23.5 14.15-4.6 14.35-4.6 21.1-23.5 17.5-23.5 17.5-25.8 26.6-25.8 26.6-23.5 24-23.5 13.3 4.3Q12.25 7.05 10.48 8.83 8.7 10.6 6.15 10.6ZM40.3-1.85L40.3-1.85Q42.15-1.85 43.52-2.48 44.9-3.1 45.77-4.23 46.65-5.35 47.07-6.88 47.5-8.4 47.5-10.2L47.5-10.2 47.5-15.6Q47.5-17.4 47.07-18.93 46.65-20.45 45.77-21.58 44.9-22.7 43.52-23.33 42.15-23.95 40.3-23.95L40.3-23.95Q38.4-23.95 37.05-23.33 35.7-22.7 34.82-21.58 33.95-20.45 33.52-18.93 33.1-17.4 33.1-15.6L33.1-15.6 33.1-10.2Q33.1-8.4 33.52-6.88 33.95-5.35 34.82-4.23 35.7-3.1 37.05-2.48 38.4-1.85 40.3-1.85ZM40.3 0.6L40.3 0.6Q37.65 0.6 35.45-0.35 33.25-1.3 31.7-3.08 30.15-4.85 29.3-7.33 28.45-9.8 28.45-12.9L28.45-12.9Q28.45-15.95 29.3-18.45 30.15-20.95 31.7-22.73 33.25-24.5 35.45-25.45 37.65-26.4 40.3-26.4L40.3-26.4Q42.95-26.4 45.15-25.45 47.35-24.5 48.9-22.73 50.45-20.95 51.3-18.45 52.15-15.95 52.15-12.9L52.15-12.9Q52.15-9.8 51.3-7.33 50.45-4.85 48.9-3.08 47.35-1.3 45.15-0.35 42.95 0.6 40.3 0.6ZM68.3 0.6L68.3 0.6Q63.65 0.6 61.62-1.83 59.6-4.25 59.6-9.15L59.6-9.15 59.6-22.55 55.9-23.2 55.9-24.9 63.7-26.4 63.7-9.5Q63.7-2.25 69.75-2.25L69.75-2.25Q70.85-2.25 71.92-2.55 73-2.85 73.87-3.5 74.75-4.15 75.27-5.1 75.8-6.05 75.8-7.35L75.8-7.35 75.8-22.55 72.1-23.2 72.1-24.9 79.9-26.4 79.9-3.25 83.6-2.6 83.6-0.9 75.9 0.6 75.9-3.9 75.7-3.9Q75.4-3.15 74.77-2.35 74.15-1.55 73.22-0.9 72.3-0.25 71.05 0.18 69.8 0.6 68.3 0.6ZM87.84 0L87.84-2.3 91.54-2.3 91.54-22.55 87.84-23.2 87.84-24.9 95.54-26.4 95.54-21.9 95.79-21.9Q96.14-22.7 96.67-23.5 97.19-24.3 97.97-24.95 98.74-25.6 99.77-26 100.79-26.4 102.14-26.4L102.14-26.4Q104.34-26.4 105.67-25.35 106.99-24.3 106.99-22.3L106.99-22.3Q106.99-20.8 106.24-19.95 105.49-19.1 104.29-19.1L104.29-19.1Q102.94-19.1 102.14-19.83 101.34-20.55 101.34-21.7L101.34-21.7Q101.34-22.7 101.77-23.33 102.19-23.95 102.74-24.05L102.74-24.05 102.74-24.15Q102.54-24.2 102.24-24.23 101.94-24.25 101.49-24.25L101.49-24.25Q100.44-24.25 99.39-23.73 98.34-23.2 97.52-22.38 96.69-21.55 96.17-20.5 95.64-19.45 95.64-18.4L95.64-18.4 95.64-2.3 100.34-2.3 100.34 0 87.84 0ZM132.14 0.6L132.14 0.6Q127.34 0.6 124.46-2.88 121.59-6.35 121.59-12.9L121.59-12.9Q121.59-19.45 124.46-22.93 127.34-26.4 132.14-26.4L132.14-26.4Q135.14-26.4 137.01-25.1 138.89-23.8 139.74-21.95L139.74-21.95 139.94-21.95 139.94-34.15 136.19-34.8 136.19-36.55 144.04-38 144.04-3.25 147.74-2.6 147.74-0.9 139.94 0.6 139.94-3.9 139.74-3.9Q138.89-2.05 137.04-0.73 135.19 0.6 132.14 0.6ZM133.34-2.25L133.34-2.25Q134.54-2.25 135.74-2.6 136.94-2.95 137.86-3.6 138.79-4.25 139.36-5.23 139.94-6.2 139.94-7.4L139.94-7.4 139.94-18.4Q139.94-19.6 139.36-20.58 138.79-21.55 137.86-22.2 136.94-22.85 135.74-23.2 134.54-23.55 133.34-23.55L133.34-23.55Q129.89-23.55 127.96-21.23 126.04-18.9 126.04-15L126.04-15 126.04-10.8Q126.04-6.9 127.96-4.58 129.89-2.25 133.34-2.25ZM151.99 0L151.99-2.3 155.69-2.3 155.69-22.55 151.99-23.2 151.99-24.9 159.69-26.4 159.69-21.9 159.94-21.9Q160.29-22.7 160.81-23.5 161.34-24.3 162.11-24.95 162.89-25.6 163.91-26 164.94-26.4 166.29-26.4L166.29-26.4Q168.49-26.4 169.81-25.35 171.14-24.3 171.14-22.3L171.14-22.3Q171.14-20.8 170.39-19.95 169.64-19.1 168.44-19.1L168.44-19.1Q167.09-19.1 166.29-19.83 165.49-20.55 165.49-21.7L165.49-21.7Q165.49-22.7 165.91-23.33 166.34-23.95 166.89-24.05L166.89-24.05 166.89-24.15Q166.69-24.2 166.39-24.23 166.09-24.25 165.64-24.25L165.64-24.25Q164.59-24.25 163.54-23.73 162.49-23.2 161.66-22.38 160.84-21.55 160.31-20.5 159.79-19.45 159.79-18.4L159.79-18.4 159.79-2.3 164.49-2.3 164.49 0 151.99 0ZM185.58 0.6L185.58 0.6Q182.83 0.6 180.66-0.38 178.48-1.35 176.98-3.1 175.48-4.85 174.68-7.35 173.88-9.85 173.88-12.9L173.88-12.9Q173.88-15.9 174.76-18.38 175.63-20.85 177.16-22.65 178.68-24.45 180.78-25.43 182.88-26.4 185.38-26.4L185.38-26.4Q187.93-26.4 189.93-25.5 191.93-24.6 193.31-22.98 194.68-21.35 195.43-19.1 196.18-16.85 196.18-14.2L196.18-14.2 196.18-13.05 178.43-13.05 178.43-11.75Q178.43-7.5 180.56-5.05 182.68-2.6 186.23-2.6L186.23-2.6Q189.33-2.6 191.16-3.88 192.98-5.15 194.03-7.2L194.03-7.2 195.68-6.15Q195.18-4.85 194.31-3.63 193.43-2.4 192.18-1.48 190.93-0.55 189.28 0.03 187.63 0.6 185.58 0.6ZM178.43-15.95L178.43-15.35 191.88-15.35 191.88-15.85Q191.88-17.6 191.51-19.1 191.13-20.6 190.33-21.7 189.53-22.8 188.31-23.43 187.08-24.05 185.38-24.05L185.38-24.05Q183.68-24.05 182.38-23.45 181.08-22.85 180.21-21.75 179.33-20.65 178.88-19.18 178.43-17.7 178.43-15.95L178.43-15.95ZM209.08 0.6L209.08 0.6Q205.48 0.6 203.46-1.28 201.43-3.15 201.43-6.4L201.43-6.4Q201.43-8.25 202.03-9.68 202.63-11.1 204.01-12.05 205.38-13 207.58-13.5 209.78-14 212.93-14L212.93-14 216.63-14 216.63-17.8Q216.63-20.85 215.16-22.48 213.68-24.1 210.73-24.1L210.73-24.1Q209.43-24.1 208.33-23.88 207.23-23.65 206.53-23.25L206.53-23.25 206.53-23.15Q207.08-22.85 207.61-22.25 208.13-21.65 208.13-20.55L208.13-20.55Q208.13-19.25 207.38-18.53 206.63-17.8 205.38-17.8L205.38-17.8Q204.18-17.8 203.41-18.53 202.63-19.25 202.63-20.7L202.63-20.7Q202.63-21.8 203.28-22.83 203.93-23.85 205.13-24.65 206.33-25.45 208.11-25.93 209.88-26.4 212.13-26.4L212.13-26.4Q216.18-26.4 218.46-24.3 220.73-22.2 220.73-18.4L220.73-18.4 220.73-2.15 224.48-2.15 224.48-0.4Q223.93 0 223.01 0.3 222.08 0.6 220.93 0.6L220.93 0.6Q218.98 0.6 217.93-0.5 216.88-1.6 216.88-3.45L216.88-3.45 216.88-3.8 216.63-3.8Q216.28-2.95 215.71-2.15 215.13-1.35 214.23-0.75 213.33-0.15 212.06 0.23 210.78 0.6 209.08 0.6ZM210.83-2.15L210.83-2.15Q213.23-2.15 214.93-3.38 216.63-4.6 216.63-7.15L216.63-7.15 216.63-12 213.38-12Q211.23-12 209.78-11.68 208.33-11.35 207.48-10.73 206.63-10.1 206.26-9.2 205.88-8.3 205.88-7.1L205.88-7.1 205.88-6.05Q205.88-4.15 207.18-3.15 208.48-2.15 210.83-2.15ZM228.73 0L228.73-2.3 232.43-2.3 232.43-22.55 228.73-23.2 228.73-24.9 236.43-26.4 236.43-21.9 236.63-21.9Q236.93-22.7 237.53-23.5 238.13-24.3 239.05-24.95 239.98-25.6 241.18-26 242.38-26.4 243.88-26.4L243.88-26.4Q247.18-26.4 249.13-25.15 251.08-23.9 251.83-21.3L251.83-21.3 251.98-21.3Q252.38-22.2 253.03-23.1 253.68-24 254.63-24.75 255.58-25.5 256.85-25.95 258.13-26.4 259.83-26.4L259.83-26.4Q264.48-26.4 266.45-23.95 268.43-21.5 268.43-16.65L268.43-16.65 268.43-2.3 272.13-2.3 272.13 0 260.63 0 260.63-2.3 264.33-2.3 264.33-16.35Q264.33-23.55 258.38-23.55L258.38-23.55Q257.28-23.55 256.2-23.23 255.13-22.9 254.3-22.28 253.48-21.65 252.98-20.68 252.48-19.7 252.48-18.4L252.48-18.4 252.48-2.3 256.18-2.3 256.18 0 244.68 0 244.68-2.3 248.38-2.3 248.38-16.35Q248.38-23.55 242.48-23.55L242.48-23.55Q241.33-23.55 240.28-23.23 239.23-22.9 238.38-22.28 237.53-21.65 237.03-20.68 236.53-19.7 236.53-18.4L236.53-18.4 236.53-2.3 240.23-2.3 240.23 0 228.73 0ZM287.22 0L287.22-2.3 290.92-2.3 290.92-34.15 287.22-34.8 287.22-36.55 295.02-38 295.02-21.95 295.22-21.95Q295.52-22.7 296.12-23.5 296.72-24.3 297.65-24.95 298.57-25.6 299.8-26 301.02-26.4 302.57-26.4L302.57-26.4Q307.22-26.4 309.22-23.98 311.22-21.55 311.22-16.7L311.22-16.7 311.22-2.3 314.92-2.3 314.92 0 303.42 0 303.42-2.3 307.12-2.3 307.12-16.35Q307.12-20 305.67-21.78 304.22-23.55 301.07-23.55L301.07-23.55Q299.97-23.55 298.9-23.25 297.82-22.95 296.95-22.3 296.07-21.65 295.55-20.7 295.02-19.75 295.02-18.45L295.02-18.45 295.02-2.3 298.72-2.3 298.72 0 287.22 0ZM330.77-1.85L330.77-1.85Q332.62-1.85 334-2.48 335.37-3.1 336.25-4.23 337.12-5.35 337.55-6.88 337.97-8.4 337.97-10.2L337.97-10.2 337.97-15.6Q337.97-17.4 337.55-18.93 337.12-20.45 336.25-21.58 335.37-22.7 334-23.33 332.62-23.95 330.77-23.95L330.77-23.95Q328.87-23.95 327.52-23.33 326.17-22.7 325.3-21.58 324.42-20.45 324-18.93 323.57-17.4 323.57-15.6L323.57-15.6 323.57-10.2Q323.57-8.4 324-6.88 324.42-5.35 325.3-4.23 326.17-3.1 327.52-2.48 328.87-1.85 330.77-1.85ZM330.77 0.6L330.77 0.6Q328.12 0.6 325.92-0.35 323.72-1.3 322.17-3.08 320.62-4.85 319.77-7.33 318.92-9.8 318.92-12.9L318.92-12.9Q318.92-15.95 319.77-18.45 320.62-20.95 322.17-22.73 323.72-24.5 325.92-25.45 328.12-26.4 330.77-26.4L330.77-26.4Q333.42-26.4 335.62-25.45 337.82-24.5 339.37-22.73 340.92-20.95 341.77-18.45 342.62-15.95 342.62-12.9L342.62-12.9Q342.62-9.8 341.77-7.33 340.92-4.85 339.37-3.08 337.82-1.3 335.62-0.35 333.42 0.6 330.77 0.6ZM347.37 0L347.37-2.3 351.07-2.3 351.07-22.55 347.37-23.2 347.37-24.9 355.07-26.4 355.07-21.9 355.27-21.9Q355.57-22.7 356.17-23.5 356.77-24.3 357.69-24.95 358.62-25.6 359.82-26 361.02-26.4 362.52-26.4L362.52-26.4Q365.82-26.4 367.77-25.15 369.72-23.9 370.47-21.3L370.47-21.3 370.62-21.3Q371.02-22.2 371.67-23.1 372.32-24 373.27-24.75 374.22-25.5 375.49-25.95 376.77-26.4 378.47-26.4L378.47-26.4Q383.12-26.4 385.09-23.95 387.07-21.5 387.07-16.65L387.07-16.65 387.07-2.3 390.77-2.3 390.77 0 379.27 0 379.27-2.3 382.97-2.3 382.97-16.35Q382.97-23.55 377.02-23.55L377.02-23.55Q375.92-23.55 374.84-23.23 373.77-22.9 372.94-22.28 372.12-21.65 371.62-20.68 371.12-19.7 371.12-18.4L371.12-18.4 371.12-2.3 374.82-2.3 374.82 0 363.32 0 363.32-2.3 367.02-2.3 367.02-16.35Q367.02-23.55 361.12-23.55L361.12-23.55Q359.97-23.55 358.92-23.23 357.87-22.9 357.02-22.28 356.17-21.65 355.67-20.68 355.17-19.7 355.17-18.4L355.17-18.4 355.17-2.3 358.87-2.3 358.87 0 347.37 0ZM406.47 0.6L406.47 0.6Q403.72 0.6 401.54-0.38 399.37-1.35 397.87-3.1 396.37-4.85 395.57-7.35 394.77-9.85 394.77-12.9L394.77-12.9Q394.77-15.9 395.64-18.38 396.52-20.85 398.04-22.65 399.57-24.45 401.67-25.43 403.77-26.4 406.27-26.4L406.27-26.4Q408.82-26.4 410.82-25.5 412.82-24.6 414.19-22.98 415.57-21.35 416.32-19.1 417.07-16.85 417.07-14.2L417.07-14.2 417.07-13.05 399.32-13.05 399.32-11.75Q399.32-7.5 401.44-5.05 403.57-2.6 407.12-2.6L407.12-2.6Q410.22-2.6 412.04-3.88 413.87-5.15 414.92-7.2L414.92-7.2 416.57-6.15Q416.07-4.85 415.19-3.63 414.32-2.4 413.07-1.48 411.82-0.55 410.17 0.03 408.52 0.6 406.47 0.6ZM399.32-15.95L399.32-15.35 412.77-15.35 412.77-15.85Q412.77-17.6 412.39-19.1 412.02-20.6 411.22-21.7 410.42-22.8 409.19-23.43 407.97-24.05 406.27-24.05L406.27-24.05Q404.57-24.05 403.27-23.45 401.97-22.85 401.09-21.75 400.22-20.65 399.77-19.18 399.32-17.7 399.32-15.95L399.32-15.95ZM443.96 0.6L443.96 0.6Q439.16 0.6 436.29-2.88 433.41-6.35 433.41-12.9L433.41-12.9Q433.41-19.45 436.29-22.93 439.16-26.4 443.96-26.4L443.96-26.4Q446.96-26.4 448.84-25.1 450.71-23.8 451.56-21.95L451.56-21.95 451.76-21.95 451.76-34.15 448.01-34.8 448.01-36.55 455.86-38 455.86-3.25 459.56-2.6 459.56-0.9 451.76 0.6 451.76-3.9 451.56-3.9Q450.71-2.05 448.86-0.73 447.01 0.6 443.96 0.6ZM445.16-2.25L445.16-2.25Q446.36-2.25 447.56-2.6 448.76-2.95 449.69-3.6 450.61-4.25 451.19-5.23 451.76-6.2 451.76-7.4L451.76-7.4 451.76-18.4Q451.76-19.6 451.19-20.58 450.61-21.55 449.69-22.2 448.76-22.85 447.56-23.2 446.36-23.55 445.16-23.55L445.16-23.55Q441.71-23.55 439.79-21.23 437.86-18.9 437.86-15L437.86-15 437.86-10.8Q437.86-6.9 439.79-4.58 441.71-2.25 445.16-2.25ZM475.26 0.6L475.26 0.6Q472.51 0.6 470.33-0.38 468.16-1.35 466.66-3.1 465.16-4.85 464.36-7.35 463.56-9.85 463.56-12.9L463.56-12.9Q463.56-15.9 464.43-18.38 465.31-20.85 466.83-22.65 468.36-24.45 470.46-25.43 472.56-26.4 475.06-26.4L475.06-26.4Q477.61-26.4 479.61-25.5 481.61-24.6 482.98-22.98 484.36-21.35 485.11-19.1 485.86-16.85 485.86-14.2L485.86-14.2 485.86-13.05 468.11-13.05 468.11-11.75Q468.11-7.5 470.23-5.05 472.36-2.6 475.91-2.6L475.91-2.6Q479.01-2.6 480.83-3.88 482.66-5.15 483.71-7.2L483.71-7.2 485.36-6.15Q484.86-4.85 483.98-3.63 483.11-2.4 481.86-1.48 480.61-0.55 478.96 0.03 477.31 0.6 475.26 0.6ZM468.11-15.95L468.11-15.35 481.56-15.35 481.56-15.85Q481.56-17.6 481.18-19.1 480.81-20.6 480.01-21.7 479.21-22.8 477.98-23.43 476.76-24.05 475.06-24.05L475.06-24.05Q473.36-24.05 472.06-23.45 470.76-22.85 469.88-21.75 469.01-20.65 468.56-19.18 468.11-17.7 468.11-15.95L468.11-15.95ZM502.11 0.6L502.11 0.6Q499.31 0.6 497.13-0.38 494.96-1.35 493.46-3.13 491.96-4.9 491.16-7.38 490.36-9.85 490.36-12.9L490.36-12.9Q490.36-16 491.23-18.5 492.11-21 493.71-22.75 495.31-24.5 497.53-25.45 499.76-26.4 502.46-26.4L502.46-26.4Q506.51-26.4 508.88-24.68 511.26-22.95 511.26-20.3L511.26-20.3Q511.26-18.7 510.43-17.8 509.61-16.9 508.16-16.9L508.16-16.9Q506.61-16.9 505.86-17.8 505.11-18.7 505.11-19.95L505.11-19.95Q505.11-21.05 505.66-21.85 506.21-22.65 507.21-23.1L507.21-23.1 507.21-23.25Q506.56-23.65 505.53-23.85 504.51-24.05 502.91-24.05L502.91-24.05Q501.16-24.05 499.68-23.4 498.21-22.75 497.16-21.58 496.11-20.4 495.51-18.82 494.91-17.25 494.91-15.4L494.91-15.4 494.91-11.7Q494.91-9.65 495.46-7.98 496.01-6.3 497.03-5.1 498.06-3.9 499.48-3.25 500.91-2.6 502.71-2.6L502.71-2.6Q505.76-2.6 507.51-3.88 509.26-5.15 510.31-7.2L510.31-7.2 511.91-6.15Q511.46-4.85 510.61-3.63 509.76-2.4 508.56-1.48 507.36-0.55 505.73 0.03 504.11 0.6 502.11 0.6ZM527.5-1.85L527.5-1.85Q529.35-1.85 530.73-2.48 532.1-3.1 532.98-4.23 533.85-5.35 534.28-6.88 534.7-8.4 534.7-10.2L534.7-10.2 534.7-15.6Q534.7-17.4 534.28-18.93 533.85-20.45 532.98-21.58 532.1-22.7 530.73-23.33 529.35-23.95 527.5-23.95L527.5-23.95Q525.6-23.95 524.25-23.33 522.9-22.7 522.03-21.58 521.15-20.45 520.73-18.93 520.3-17.4 520.3-15.6L520.3-15.6 520.3-10.2Q520.3-8.4 520.73-6.88 521.15-5.35 522.03-4.23 522.9-3.1 524.25-2.48 525.6-1.85 527.5-1.85ZM527.5 0.6L527.5 0.6Q524.85 0.6 522.65-0.35 520.45-1.3 518.9-3.08 517.35-4.85 516.5-7.33 515.65-9.8 515.65-12.9L515.65-12.9Q515.65-15.95 516.5-18.45 517.35-20.95 518.9-22.73 520.45-24.5 522.65-25.45 524.85-26.4 527.5-26.4L527.5-26.4Q530.15-26.4 532.35-25.45 534.55-24.5 536.1-22.73 537.65-20.95 538.5-18.45 539.35-15.95 539.35-12.9L539.35-12.9Q539.35-9.8 538.5-7.33 537.65-4.85 536.1-3.08 534.55-1.3 532.35-0.35 530.15 0.6 527.5 0.6ZM544.1 0L544.1-2.3 547.8-2.3 547.8-22.55 544.1-23.2 544.1-24.9 551.8-26.4 551.8-21.9 552.05-21.9Q552.4-22.7 552.93-23.5 553.45-24.3 554.23-24.95 555-25.6 556.02-26 557.05-26.4 558.4-26.4L558.4-26.4Q560.6-26.4 561.93-25.35 563.25-24.3 563.25-22.3L563.25-22.3Q563.25-20.8 562.5-19.95 561.75-19.1 560.55-19.1L560.55-19.1Q559.2-19.1 558.4-19.83 557.6-20.55 557.6-21.7L557.6-21.7Q557.6-22.7 558.02-23.33 558.45-23.95 559-24.05L559-24.05 559-24.15Q558.8-24.2 558.5-24.23 558.2-24.25 557.75-24.25L557.75-24.25Q556.7-24.25 555.65-23.73 554.6-23.2 553.77-22.38 552.95-21.55 552.43-20.5 551.9-19.45 551.9-18.4L551.9-18.4 551.9-2.3 556.6-2.3 556.6 0 544.1 0Z" opacity="1" transform="matrix(1,0,0,1,0,0)" fill="#dedede" class="slogan-text-1" data-fill-palette-color="secondary" id="text-1"></path></svg></g></svg></g></svg></g></svg></g><g transform="matrix(1,0,0,1,0,65.41673998617924)"><svg viewBox="0 0 77.74509767649621 67.69006504366936" height="67.69006504366936" width="77.74509767649621"><g><svg xmlns="http://www.w3.org/2000/svg" xmlns:xlink="http://www.w3.org/1999/xlink" version="1.1" x="0" y="0" viewBox="6.139 10.653 90 78.36" enable-background="new 1.139 6.3 100 87.067" xml:space="preserve" height="67.69006504366936" width="77.74509767649621" class="icon-icon-0" data-fill-palette-color="accent" id="icon-0"><path d="M66.221 79.341H36.057V64.587h30.164L66.221 79.341 66.221 79.341zM37.041 78.358h28.197V65.571H37.041V78.358z" fill="#dedede" data-fill-palette-color="accent"></path><path d="M59.991 35.407H59.14l-7.594-11.123c-0.184-0.269-0.63-0.269-0.812 0l-7.594 11.123h-0.852c-0.813 0-1.475 0.662-1.475 1.475v5.902c0 0.813 0.662 1.475 1.475 1.475h17.705c0.813 0 1.475-0.662 1.475-1.475v-5.902C61.467 36.068 60.805 35.407 59.991 35.407zM51.139 25.434l6.81 9.974H44.329L51.139 25.434zM60.483 42.784c0 0.271-0.22 0.492-0.492 0.492H42.287c-0.271 0-0.492-0.22-0.492-0.492v-5.902c0-0.271 0.22-0.492 0.492-0.492h17.705c0.271 0 0.492 0.22 0.492 0.492V42.784z" fill="#dedede" data-fill-palette-color="accent"></path><path d="M71.303 86.718V10.653H30.975v76.065H6.139v0.984h24.836v1.311h40.328v-1.311h24.836v-0.984H71.303zM70.319 88.03H31.959V55.036c0.36 1.188 1.454 2.063 2.758 2.063 0.486 0 0.937-0.132 1.341-0.344l0 0v1.933h30.163V14.752H36.057v36.902l0 0c-0.402-0.212-0.855-0.344-1.341-0.344-1.304 0-2.398 0.873-2.758 2.062V11.637h38.361V88.03zM32.806 54.203c0-1.053 0.858-1.911 1.911-1.911 1.053 0 1.911 0.858 1.911 1.911 0 1.053-0.858 1.911-1.911 1.911C33.663 56.114 32.806 55.258 32.806 54.203zM37.041 52.495V15.735h28.196v41.968H37.041v-1.79c0.354-0.48 0.57-1.067 0.57-1.709S37.395 52.975 37.041 52.495z" fill="#dedede" data-fill-palette-color="accent"></path><path d="M35.265 59.108c0-0.588-0.477-1.065-1.065-1.065-0.588 0-1.065 0.477-1.065 1.065 0 0.334 0.157 0.629 0.397 0.824-0.141 0.473-0.227 1.092-0.227 1.77 0 1.485 0.409 1.506 0.913 1.506 0.505 0 0.913-0.02 0.913-1.506 0-0.69-0.09-1.319-0.234-1.795C35.12 59.713 35.265 59.429 35.265 59.108z" fill="#dedede" data-fill-palette-color="accent"></path></svg></g></svg></g></svg></g></svg></g><g><path d="M0 123.6c0-68.262 55.338-123.6 123.6-123.6 32.695 0 62.426 12.695 84.531 33.424h-7.906c-20.645-17.56-47.398-28.156-76.625-28.156-65.353 0-118.332 52.979-118.332 118.332 0 65.353 52.979 118.332 118.332 118.332 29.227 0 55.979-10.596 76.625-28.156h7.906c-22.105 20.729-51.835 33.424-84.531 33.424-68.262 0-123.6-55.338-123.6-123.6z" fill="#89939e" stroke="transparent" data-fill-palette-color="tertiary"></path></g></svg></g><defs></defs></svg><rect width="395.52" height="247.2" fill="none" stroke="none" visibility="hidden"></rect></g></svg></g></svg>